 <svg
    xmlns="http://www.w3.org/2000/svg"
    width={301}
    height={50}
    fill="none"
    className="logo-svg flex-shrink-0 d-none d-sm-block"
  >
    <g clipPath="url(#a)">
      <path
        fill="#fff"
        d="M39.304 4.588h26.37v4.858H44.72v8.193h12.537v4.917H44.72v10.008h22.84v4.917H39.303V4.588ZM86.57 26.652l-9.83 10.826h-6.475l13.066-14.395L70.206 8.57h6.946l9.536 10.708 9.71-10.708h6.535L89.926 22.91l13.007 14.571h-6.594l-9.77-10.826v-.003ZM118.327 12.78c-5.357 0-9.185 4.564-9.185 10.24s3.828 10.24 9.241 10.24c5.886 0 8.064-3.805 8.535-4.8h5.298c-.293 2.049-3.416 9.714-13.833 9.714-8.299 0-14.775-6.612-14.775-15.157 0-8.546 6.416-15.158 14.715-15.158 10.536 0 13.419 7.551 13.89 9.714h-5.417c-.471-.936-2.649-4.8-8.476-4.8l.007.007ZM181.272 19.336h9.947c0-4.446-3.415-6.847-8.18-6.847-4.764 0-6.769 2.692-7.239 3.628h-5.416c.766-3.452 4.649-8.31 12.655-8.31 8.477 0 13.304 4.74 13.304 11.47V29.99c0 2.048.707 2.81 2.589 2.983v4.8c-4.179-.118-6.709-1.64-7.476-4.505-1.411 2.166-4.472 4.858-9.654 4.858-6.888 0-12.244-3.805-12.244-9.772 0-5.968 4.416-9.013 11.714-9.013v-.004Zm9.947 7.198V23.55h-9.71c-4.001 0-6.595 1.58-6.595 4.8 0 3.219 3.179 5.326 7.358 5.326 4.709 0 8.947-2.284 8.947-7.139v-.003ZM208.966 37.477h-5.357V8.57h5.357v5.327c1.119-2.34 4.472-5.971 9.889-5.971 7.357 0 12.417 5.444 12.417 12.933v16.62h-5.416V21.852c0-5.444-3.297-9.013-8.298-9.013-5.002 0-8.595 3.746-8.595 9.013v15.625h.003ZM300.561 23.668h-24.192c.292 5.386 4.178 9.6 9.887 9.6 5.71 0 8.181-3.102 8.655-4.038h5.298c-.471 2.516-4.18 8.955-13.949 8.955-9.007 0-15.304-6.671-15.304-15.158 0-8.487 6.297-15.157 14.774-15.157s14.833 6.32 14.833 15.802l-.002-.004Zm-23.84-4.446h17.894c-1.353-4.39-4.473-6.788-8.888-6.788-4.709 0-7.887 2.574-9.006 6.788ZM260.937 32.564c-.767 1.521-3.945 5.676-10.595 5.676-7.77 0-14.363-5.617-14.363-15.157s6.591-15.217 14.363-15.217c6.59 0 9.828 3.979 10.595 5.559V8.566h5.357V36.17c0 8.133-5.298 13.813-15.245 13.813-11.299 0-14.363-7.315-14.834-9.131h5.887c.411.703 2.471 4.214 8.947 4.214 6.475 0 9.888-3.279 9.888-8.896v-3.608.003Zm-9.595-19.78c-5.946 0-9.829 4.446-9.829 10.299s3.886 10.24 9.829 10.24c5.943 0 9.71-4.564 9.71-10.24 0-5.677-3.886-10.3-9.71-10.3ZM142.589 37.478h-5.357V.198h5.357v13.694c1.119-2.342 4.472-5.97 9.888-5.97 7.357 0 12.419 5.44 12.419 12.932v16.62h-5.417V21.85c0-5.44-3.296-9.013-8.298-9.013-5.002 0-8.595 3.746-8.595 9.013v15.625l.003.004Z"
      />
      <path
        fill="#3364F6"
        d="m16.603 12.7 12.84-6.771-2.16-4.096-11.756 4.694a1.265 1.265 0 0 1-.941 0L2.826 1.833.667 5.929l12.84 6.772L.667 19.47l2.159 4.096 11.757-4.695c.302-.12.638-.12.94 0l11.758 4.695 2.158-4.096-12.84-6.772.004.003Z"
      />
    </g>
    <defs>
      <clipPath id="a">
        <path fill="#fff" d="M.667.197h300v49.785h-300z" />
      </clipPath>
    </defs>
  </svg>